<mxfile host="app.diagrams.net" modified="2024-03-13T19:29:54.511Z" agent="Mozilla/5.0 (Windows NT 10.0; Win64; x64) AppleWebKit/537.36 (KHTML, like Gecko) Chrome/122.0.0.0 Safari/537.36" etag="wPbNalyApOsVUx1JoteD" version="24.0.5" type="device">
  <diagram name="Page-1" id="ivnIsq2ig485QlsLtY3N">
    <mxGraphModel dx="1430" dy="763" grid="1" gridSize="10" guides="1" tooltips="1" connect="1" arrows="1" fold="1" page="1" pageScale="1" pageWidth="850" pageHeight="1100" math="0" shadow="0">
      <root>
        <mxCell id="0" />
        <mxCell id="1" parent="0" />
        <mxCell id="rwre4ibCbR-S0OF3SVJ5-13" style="edgeStyle=orthogonalEdgeStyle;rounded=0;orthogonalLoop=1;jettySize=auto;html=1;exitX=1;exitY=0.25;exitDx=0;exitDy=0;fillColor=#1ba1e2;strokeColor=#006EAF;" edge="1" parent="1" source="rwre4ibCbR-S0OF3SVJ5-1" target="rwre4ibCbR-S0OF3SVJ5-7">
          <mxGeometry relative="1" as="geometry" />
        </mxCell>
        <mxCell id="rwre4ibCbR-S0OF3SVJ5-1" value="" style="rounded=1;whiteSpace=wrap;html=1;fillColor=#dae8fc;strokeColor=#6c8ebf;" vertex="1" parent="1">
          <mxGeometry x="40" y="120" width="230" height="350" as="geometry" />
        </mxCell>
        <mxCell id="rwre4ibCbR-S0OF3SVJ5-2" value="FE/CLIENT&lt;div&gt;&lt;br&gt;&lt;/div&gt;" style="text;html=1;align=center;verticalAlign=middle;whiteSpace=wrap;rounded=0;" vertex="1" parent="1">
          <mxGeometry x="120" y="190" width="60" height="30" as="geometry" />
        </mxCell>
        <mxCell id="rwre4ibCbR-S0OF3SVJ5-3" value="POSTMAN" style="text;html=1;align=center;verticalAlign=middle;whiteSpace=wrap;rounded=0;" vertex="1" parent="1">
          <mxGeometry x="120" y="270" width="60" height="30" as="geometry" />
        </mxCell>
        <mxCell id="rwre4ibCbR-S0OF3SVJ5-4" value="" style="rounded=1;whiteSpace=wrap;html=1;fillColor=#D5E8D4;strokeColor=#82b366;" vertex="1" parent="1">
          <mxGeometry x="470" y="95" width="350" height="400" as="geometry" />
        </mxCell>
        <mxCell id="rwre4ibCbR-S0OF3SVJ5-14" style="edgeStyle=orthogonalEdgeStyle;rounded=0;orthogonalLoop=1;jettySize=auto;html=1;exitX=1;exitY=0.5;exitDx=0;exitDy=0;entryX=0;entryY=0.5;entryDx=0;entryDy=0;fillColor=#1ba1e2;strokeColor=#006EAF;" edge="1" parent="1" source="rwre4ibCbR-S0OF3SVJ5-7" target="rwre4ibCbR-S0OF3SVJ5-9">
          <mxGeometry relative="1" as="geometry" />
        </mxCell>
        <mxCell id="rwre4ibCbR-S0OF3SVJ5-27" value="STEP 1" style="edgeLabel;html=1;align=center;verticalAlign=middle;resizable=0;points=[];labelBackgroundColor=#D5E8D4;" vertex="1" connectable="0" parent="rwre4ibCbR-S0OF3SVJ5-14">
          <mxGeometry x="-0.1682" y="1" relative="1" as="geometry">
            <mxPoint as="offset" />
          </mxGeometry>
        </mxCell>
        <mxCell id="rwre4ibCbR-S0OF3SVJ5-7" value="" style="rhombus;whiteSpace=wrap;html=1;" vertex="1" parent="1">
          <mxGeometry x="430" y="245" width="80" height="80" as="geometry" />
        </mxCell>
        <mxCell id="rwre4ibCbR-S0OF3SVJ5-8" value="ROUTER" style="text;html=1;align=center;verticalAlign=middle;whiteSpace=wrap;rounded=0;" vertex="1" parent="1">
          <mxGeometry x="440" y="270" width="60" height="30" as="geometry" />
        </mxCell>
        <mxCell id="rwre4ibCbR-S0OF3SVJ5-15" style="edgeStyle=orthogonalEdgeStyle;rounded=0;orthogonalLoop=1;jettySize=auto;html=1;exitX=1;exitY=0.5;exitDx=0;exitDy=0;entryX=1;entryY=0.5;entryDx=0;entryDy=0;fillColor=#1ba1e2;strokeColor=#006EAF;" edge="1" parent="1" source="rwre4ibCbR-S0OF3SVJ5-9" target="rwre4ibCbR-S0OF3SVJ5-12">
          <mxGeometry relative="1" as="geometry" />
        </mxCell>
        <mxCell id="rwre4ibCbR-S0OF3SVJ5-28" value="&lt;span style=&quot;color: rgba(0, 0, 0, 0); font-family: monospace; font-size: 0px; text-align: start; background-color: rgb(251, 251, 251);&quot;&gt;%3CmxGraphModel%3E%3Croot%3E%3CmxCell%20id%3D%220%22%2F%3E%3CmxCell%20id%3D%221%22%20parent%3D%220%22%2F%3E%3CmxCell%20id%3D%222%22%20value%3D%22STEP%201%22%20style%3D%22edgeLabel%3Bhtml%3D1%3Balign%3Dcenter%3BverticalAlign%3Dmiddle%3Bresizable%3D0%3Bpoints%3D%5B%5D%3BlabelBackgroundColor%3D%23D5E8D4%3B%22%20vertex%3D%221%22%20connectable%3D%220%22%20parent%3D%221%22%3E%3CmxGeometry%20x%3D%22549.0000000000002%22%20y%3D%22239.48275862068965%22%20as%3D%22geometry%22%2F%3E%3C%2FmxCell%3E%3C%2Froot%3E%3C%2FmxGraphModel%3E&lt;/span&gt;&lt;span style=&quot;color: rgba(0, 0, 0, 0); font-family: monospace; font-size: 0px; text-align: start; background-color: rgb(251, 251, 251);&quot;&gt;%3CmxGraphModel%3E%3Croot%3E%3CmxCell%20id%3D%220%22%2F%3E%3CmxCell%20id%3D%221%22%20parent%3D%220%22%2F%3E%3CmxCell%20id%3D%222%22%20value%3D%22STEP%201%22%20style%3D%22edgeLabel%3Bhtml%3D1%3Balign%3Dcenter%3BverticalAlign%3Dmiddle%3Bresizable%3D0%3Bpoints%3D%5B%5D%3BlabelBackgroundColor%3D%23D5E8D4%3B%22%20vertex%3D%221%22%20connectable%3D%220%22%20parent%3D%221%22%3E%3CmxGeometry%20x%3D%22549.0000000000002%22%20y%3D%22239.48275862068965%22%20as%3D%22geometry%22%2F%3E%3C%2FmxCell%3E%3C%2Froot%3E%3C%2FmxGraphModel%3E&lt;/span&gt;" style="edgeLabel;html=1;align=center;verticalAlign=middle;resizable=0;points=[];" vertex="1" connectable="0" parent="rwre4ibCbR-S0OF3SVJ5-15">
          <mxGeometry x="-0.2932" y="-1" relative="1" as="geometry">
            <mxPoint as="offset" />
          </mxGeometry>
        </mxCell>
        <mxCell id="rwre4ibCbR-S0OF3SVJ5-29" value="STEP 2" style="edgeLabel;html=1;align=center;verticalAlign=middle;resizable=0;points=[];labelBackgroundColor=#D5E8D4;" vertex="1" connectable="0" parent="rwre4ibCbR-S0OF3SVJ5-15">
          <mxGeometry x="-0.282" y="-1" relative="1" as="geometry">
            <mxPoint as="offset" />
          </mxGeometry>
        </mxCell>
        <mxCell id="rwre4ibCbR-S0OF3SVJ5-9" value="" style="rounded=1;whiteSpace=wrap;html=1;fillColor=#f8cecc;strokeColor=#b85450;" vertex="1" parent="1">
          <mxGeometry x="590" y="130" width="120" height="60" as="geometry" />
        </mxCell>
        <mxCell id="rwre4ibCbR-S0OF3SVJ5-10" value="CONTROLLER" style="text;html=1;align=center;verticalAlign=middle;whiteSpace=wrap;rounded=0;" vertex="1" parent="1">
          <mxGeometry x="620" y="145" width="60" height="30" as="geometry" />
        </mxCell>
        <mxCell id="rwre4ibCbR-S0OF3SVJ5-16" style="edgeStyle=orthogonalEdgeStyle;rounded=0;orthogonalLoop=1;jettySize=auto;html=1;exitX=0.75;exitY=0;exitDx=0;exitDy=0;entryX=0.75;entryY=1;entryDx=0;entryDy=0;fillColor=#fa6800;strokeColor=#C73500;" edge="1" parent="1" source="rwre4ibCbR-S0OF3SVJ5-11" target="rwre4ibCbR-S0OF3SVJ5-9">
          <mxGeometry relative="1" as="geometry" />
        </mxCell>
        <mxCell id="rwre4ibCbR-S0OF3SVJ5-30" value="STEP 3" style="edgeLabel;html=1;align=center;verticalAlign=middle;resizable=0;points=[];labelBackgroundColor=#D5E8D4;" vertex="1" connectable="0" parent="rwre4ibCbR-S0OF3SVJ5-16">
          <mxGeometry x="0.2118" relative="1" as="geometry">
            <mxPoint as="offset" />
          </mxGeometry>
        </mxCell>
        <mxCell id="rwre4ibCbR-S0OF3SVJ5-11" value="" style="rounded=1;whiteSpace=wrap;html=1;fillColor=#e1d5e7;strokeColor=#9673a6;" vertex="1" parent="1">
          <mxGeometry x="590" y="430" width="120" height="60" as="geometry" />
        </mxCell>
        <mxCell id="rwre4ibCbR-S0OF3SVJ5-12" value="MODEL" style="text;html=1;align=center;verticalAlign=middle;whiteSpace=wrap;rounded=0;" vertex="1" parent="1">
          <mxGeometry x="620" y="445" width="60" height="30" as="geometry" />
        </mxCell>
        <mxCell id="rwre4ibCbR-S0OF3SVJ5-17" style="edgeStyle=orthogonalEdgeStyle;rounded=0;orthogonalLoop=1;jettySize=auto;html=1;exitX=0.5;exitY=1;exitDx=0;exitDy=0;entryX=0.994;entryY=0.624;entryDx=0;entryDy=0;entryPerimeter=0;fillColor=#fa6800;strokeColor=#C73500;" edge="1" parent="1" source="rwre4ibCbR-S0OF3SVJ5-9" target="rwre4ibCbR-S0OF3SVJ5-1">
          <mxGeometry relative="1" as="geometry" />
        </mxCell>
        <mxCell id="rwre4ibCbR-S0OF3SVJ5-26" value="STEP 4" style="edgeLabel;html=1;align=center;verticalAlign=middle;resizable=0;points=[];" vertex="1" connectable="0" parent="rwre4ibCbR-S0OF3SVJ5-17">
          <mxGeometry x="0.3673" y="-2" relative="1" as="geometry">
            <mxPoint as="offset" />
          </mxGeometry>
        </mxCell>
        <mxCell id="rwre4ibCbR-S0OF3SVJ5-19" value="get /products&lt;div&gt;&lt;br&gt;&lt;/div&gt;" style="text;html=1;align=center;verticalAlign=middle;whiteSpace=wrap;rounded=0;" vertex="1" parent="1">
          <mxGeometry x="365" y="260" width="60" height="30" as="geometry" />
        </mxCell>
        <mxCell id="rwre4ibCbR-S0OF3SVJ5-22" value="&lt;div style=&quot;&quot;&gt;&lt;span style=&quot;background-color: initial;&quot;&gt;we make request to the server, on endpoint: /products&lt;/span&gt;&lt;/div&gt;&lt;div style=&quot;&quot;&gt;&lt;br&gt;&lt;/div&gt;" style="shape=callout;whiteSpace=wrap;html=1;perimeter=calloutPerimeter;align=center;" vertex="1" parent="1">
          <mxGeometry x="290" y="110" width="120" height="90" as="geometry" />
        </mxCell>
        <mxCell id="rwre4ibCbR-S0OF3SVJ5-23" value="#1. The controller consumes the request and calls coresponding method in the model" style="shape=callout;whiteSpace=wrap;html=1;perimeter=calloutPerimeter;fillColor=#f8cecc;strokeColor=#b85450;" vertex="1" parent="1">
          <mxGeometry x="500" y="20" width="150" height="100" as="geometry" />
        </mxCell>
        <mxCell id="rwre4ibCbR-S0OF3SVJ5-24" value="#3. The model will compute the request, do some heavy logic etc. and will return the result back to the controller&amp;nbsp;&amp;nbsp;" style="shape=callout;whiteSpace=wrap;html=1;perimeter=calloutPerimeter;fillColor=#e1d5e7;strokeColor=#9673a6;" vertex="1" parent="1">
          <mxGeometry x="480" y="350" width="190" height="90" as="geometry" />
        </mxCell>
        <mxCell id="rwre4ibCbR-S0OF3SVJ5-25" value="#2. The controller calls the method of the model" style="shape=callout;whiteSpace=wrap;html=1;perimeter=calloutPerimeter;fillColor=#f8cecc;strokeColor=#b85450;" vertex="1" parent="1">
          <mxGeometry x="760" y="250" width="190" height="90" as="geometry" />
        </mxCell>
        <mxCell id="rwre4ibCbR-S0OF3SVJ5-31" value="#4. Once the result of the computed data comes back from the model, the controller will return it to the client" style="shape=callout;whiteSpace=wrap;html=1;perimeter=calloutPerimeter;fillColor=#f8cecc;strokeColor=#b85450;" vertex="1" parent="1">
          <mxGeometry x="670" y="20" width="190" height="90" as="geometry" />
        </mxCell>
      </root>
    </mxGraphModel>
  </diagram>
</mxfile>
